<?xml version="1.0" standalone="no"?>
<!DOCTYPE svg PUBLIC "-//W3C//DTD SVG 1.1//EN" "http://www.w3.org/Graphics/SVG/1.1/DTD/svg11.dtd" >
<svg xmlns="http://www.w3.org/2000/svg">
<metadata>Generated by IcoMoon</metadata>
<defs>
<font id="gtbicon" horiz-adv-x="1024">
<font-face units-per-em="1024" ascent="960" descent="-64" />
<missing-glyph horiz-adv-x="1024" />
<glyph unicode="&#x20;" horiz-adv-x="512" d="" />
<glyph unicode="&#xe800;" glyph-name="ctg" d="M819.2 406.4c32 0 54.4-25.6 54.4-57.6v-208c0-16-6.4-28.8-16-41.6-9.6-9.6-25.6-16-38.4-16h-204.8c-32 0-54.4 25.6-54.4 57.6v208c0 32 25.6 57.6 54.4 57.6h204.8zM819.2 425.6h-204.8c-41.6 0-76.8-35.2-76.8-76.8v-208c0-41.6 35.2-76.8 76.8-76.8h204.8c41.6 0 76.8 35.2 76.8 76.8v208c0 41.6-35.2 76.8-76.8 76.8v0zM819.2 812.8c32 0 54.4-25.6 54.4-57.6v-208c0-16-6.4-28.8-16-41.6-9.6-9.6-25.6-16-38.4-16h-204.8c-32 0-54.4 25.6-54.4 57.6v208c0 32 25.6 57.6 54.4 57.6h204.8zM819.2 832h-204.8c-41.6 0-76.8-35.2-76.8-76.8v-208c0-41.6 35.2-76.8 76.8-76.8h204.8c41.6 0 76.8 35.2 76.8 76.8v208c0 41.6-35.2 76.8-76.8 76.8v0zM412.8 406.4c32 0 54.4-25.6 54.4-57.6v-208c0-32-25.6-57.6-54.4-57.6h-208c-32 0-54.4 25.6-54.4 57.6v208c0 32 25.6 57.6 54.4 57.6h208zM412.8 425.6h-208c-41.6 0-76.8-35.2-76.8-76.8v-208c0-41.6 35.2-76.8 76.8-76.8h204.8c41.6 0 76.8 35.2 76.8 76.8v208c0 41.6-32 76.8-73.6 76.8v0zM412.8 812.8c32 0 54.4-25.6 54.4-57.6v-208c0-32-25.6-57.6-54.4-57.6h-208c-32 0-54.4 25.6-54.4 57.6v208c0 32 25.6 57.6 54.4 57.6h208zM412.8 832h-208c-41.6 0-76.8-35.2-76.8-76.8v-208c0-41.6 35.2-76.8 76.8-76.8h204.8c41.6 0 76.8 35.2 76.8 76.8v208c0 41.6-32 76.8-73.6 76.8v0z" />
<glyph unicode="&#xe801;" glyph-name="ctg-active" d="M819.2 64h-204.8c-41.6 0-76.8 35.2-76.8 76.8v208c0 41.6 35.2 76.8 76.8 76.8h204.8c41.6 0 76.8-35.2 76.8-76.8v-208c0-41.6-35.2-76.8-76.8-76.8v0zM819.2 470.4h-204.8c-41.6 0-76.8 35.2-76.8 76.8v208c0 41.6 35.2 76.8 76.8 76.8h204.8c41.6 0 76.8-35.2 76.8-76.8v-208c0-41.6-35.2-76.8-76.8-76.8v0zM412.8 64h-208c-41.6 0-76.8 35.2-76.8 76.8v208c0 41.6 35.2 76.8 76.8 76.8h204.8c41.6 0 76.8-35.2 76.8-76.8v-208c0-41.6-32-76.8-73.6-76.8v0zM412.8 470.4h-208c-41.6 0-76.8 35.2-76.8 76.8v208c0 41.6 35.2 76.8 76.8 76.8h204.8c41.6 0 76.8-35.2 76.8-76.8v-208c0-41.6-32-76.8-73.6-76.8v0z" />
<glyph unicode="&#xe802;" glyph-name="mine" d="M588.8 387.2c131.2 0 240-105.6 240-233.6v-16c0-54.4-115.2-54.4-240-54.4h-153.6c-147.2 0-240 3.2-240 54.4v16c0 128 108.8 233.6 240 233.6h153.6zM588.8 406.4h-153.6c-144 0-259.2-115.2-259.2-256v-16c0-73.6 115.2-73.6 259.2-73.6h153.6c140.8 0 259.2 0 259.2 73.6v16c0 144-115.2 256-259.2 256v0zM505.6 812.8c102.4 0 185.6-80 185.6-182.4 0-99.2-83.2-182.4-185.6-182.4s-185.6 80-185.6 182.4c0 99.2 83.2 182.4 185.6 182.4zM505.6 832c-112 0-204.8-89.6-204.8-201.6s92.8-201.6 204.8-201.6c112 0 204.8 89.6 204.8 201.6s-92.8 201.6-204.8 201.6v0z" />
<glyph unicode="&#xe803;" glyph-name="mine-active" d="M588.8 64h-153.6c-144 0-259.2 0-259.2 73.6v16c0 140.8 115.2 256 259.2 256h153.6c144 0 259.2-115.2 259.2-256v-16c0-73.6-118.4-73.6-259.2-73.6v0zM505.6 428.8c-112 0-204.8 89.6-204.8 201.6s92.8 201.6 204.8 201.6c112 0 204.8-89.6 204.8-201.6s-92.8-201.6-204.8-201.6v0z" />
<glyph unicode="&#xe804;" glyph-name="cart" d="M236.8 780.8v0c16 0 25.6-9.6 28.8-28.8l12.8-73.6 3.2-16h576c12.8 0 32-3.2 35.2-12.8 3.2-3.2 3.2-9.6 0-19.2l-60.8-179.2c0-3.2-9.6-41.6-44.8-41.6h-454.4l3.2-22.4 12.8-73.6 3.2-16h428.8c6.4 0 12.8-3.2 16-6.4 0 0 3.2-3.2 3.2-6.4v0 0c0 0 0-9.6-6.4-16 0 0-3.2-3.2-12.8-3.2h-428.8c-9.6 0-28.8 3.2-35.2 35.2l-83.2 409.6-3.2 16h-76.8c-6.4 0-22.4 3.2-25.6 35.2 0 6.4 3.2 19.2 12.8 19.2h96c-3.2 0 0 0 0 0zM236.8 800c-3.2 0-6.4 0-6.4 0h-89.6c-32 0-35.2-38.4-35.2-38.4 6.4-54.4 44.8-57.6 44.8-57.6h60.8l80-412.8c12.8-51.2 48-51.2 57.6-51.2 0 0 0 0 0 0h428.8c38.4 0 38.4 41.6 38.4 41.6 0 32-32 32-38.4 32 0 0 0 0 0 0h-412.8l-12.8 73.6h428.8c54.4 0 67.2 57.6 67.2 57.6l60.8 176c19.2 57.6-51.2 57.6-54.4 57.6 0 0 0 0 0 0h-560l-9.6 76.8c-6.4 41.6-35.2 44.8-48 44.8v0zM643.2 812.8c16 0 28.8-9.6 28.8-12.8l73.6-73.6h-201.6l73.6 73.6c9.6 6.4 16 12.8 25.6 12.8zM643.2 832c-12.8 0-25.6-3.2-38.4-19.2l-108.8-108.8h297.6l-108.8 108.8c0 3.2-16 19.2-41.6 19.2v0zM377.6 198.4c32 0 57.6-25.6 57.6-57.6s-25.6-57.6-57.6-57.6-57.6 25.6-57.6 57.6c0 32 25.6 57.6 57.6 57.6zM377.6 217.6c-41.6 0-76.8-35.2-76.8-76.8s35.2-76.8 76.8-76.8 76.8 35.2 76.8 76.8-35.2 76.8-76.8 76.8v0zM720 198.4c32 0 57.6-25.6 57.6-57.6s-25.6-57.6-57.6-57.6-57.6 25.6-57.6 57.6c0 32 25.6 57.6 57.6 57.6zM720 217.6c-41.6 0-76.8-35.2-76.8-76.8s35.2-76.8 76.8-76.8 76.8 35.2 76.8 76.8-35.2 76.8-76.8 76.8v0z" />
<glyph unicode="&#xe805;" glyph-name="cart-active" d="M496 707.2h300.8l-108.8 108.8c0 0-44.8 38.4-83.2 0l-108.8-108.8zM451.2 140.8c0-42.415-34.385-76.8-76.8-76.8s-76.8 34.385-76.8 76.8c0 42.415 34.385 76.8 76.8 76.8s76.8-34.385 76.8-76.8zM796.8 140.8c0-42.415-34.385-76.8-76.8-76.8s-76.8 34.385-76.8 76.8c0 42.415 34.385 76.8 76.8 76.8s76.8-34.385 76.8-76.8zM857.6 681.6h-560l-12.8 73.6c-6.4 51.2-54.4 44.8-54.4 44.8h-89.6c-32 0-35.2-38.4-35.2-38.4 6.4-54.4 44.8-57.6 44.8-57.6h60.8l80-412.8c12.8-54.4 57.6-51.2 57.6-51.2h428.8c38.4 0 38.4 41.6 38.4 41.6 0 35.2-38.4 32-38.4 32h-412.8l-19.2 76.8 438.4-3.2c54.4 0 67.2 57.6 67.2 57.6l60.8 176c22.4 60.8-54.4 60.8-54.4 60.8z" />
<glyph unicode="&#xe806;" glyph-name="home" d="M512 812.8c92.8 0 179.2-35.2 243.2-99.2s102.4-150.4 102.4-243.2v-12.8l12.8-6.4c6.4-3.2 12.8-6.4 19.2-9.6h-76.8v-268.8c0-48-38.4-86.4-86.4-86.4h-428.8c-48 0-86.4 38.4-86.4 86.4v268.8h-80c6.4 3.2 12.8 6.4 19.2 9.6l12.8 6.4v12.8c0 92.8 38.4 179.2 102.4 243.2 67.2 60.8 153.6 99.2 246.4 99.2zM512 832c-201.6 0-364.8-163.2-368-361.6-35.2-12.8-64-28.8-92.8-48h140.8v-249.6c0-60.8 48-108.8 105.6-108.8h428.8c57.6 0 105.6 48 105.6 105.6v249.6h137.6c-25.6 19.2-57.6 35.2-92.8 48 0 201.6-163.2 364.8-364.8 364.8v0z" />
<glyph unicode="&#xe807;" glyph-name="home-active" d="M880 470.4c-3.2 198.4-166.4 361.6-368 361.6s-364.8-163.2-368-361.6c-35.2-12.8-64-28.8-92.8-48h137.6v-249.6c0-57.6 48-105.6 105.6-105.6h428.8c57.6 0 105.6 48 105.6 105.6v249.6h137.6c-22.4 19.2-54.4 35.2-86.4 48z" />
<glyph unicode="&#xe808;" glyph-name="edit" d="M770.844-12.8h-497.778c-85.333 0-156.444 71.111-156.444 156.444v611.556c0 85.333 71.111 156.444 156.444 156.444h494.933c85.333 0 156.444-71.111 156.444-156.444v-611.556c2.844-85.333-68.267-156.444-153.6-156.444zM273.067 883.2c-71.111 0-128-56.889-128-128v-611.556c0-71.111 56.889-128 128-128h494.933c71.111 0 128 56.889 128 128v611.556c0 71.111-56.889 128-128 128h-494.933zM290.133 760.889h438.044v-28.444h-438.044v28.444zM290.133 641.422h438.044v-28.444h-438.044v28.444zM290.133 513.422h438.044v-28.444h-438.044v28.444zM290.133 391.111h136.533v-28.444h-136.533v28.444zM563.2 155.022l-71.111 65.422 196.267 207.644c8.533 8.533 34.133 19.911 59.733-5.689s17.067-48.356 11.378-59.733l-196.267-207.644zM529.067 220.444l34.133-31.289 179.2 190.578c0 0 5.689 11.378-8.533 25.6-17.067 14.222-25.6 5.689-25.6 5.689l-179.2-190.578zM548.978 140.8l-59.733 2.844-5.689 59.733z" />
<glyph unicode="&#xe809;" d="M785.067 21.333h-512c-93.867 0-170.667 76.8-170.667 170.667v512c0 93.867 76.8 170.667 170.667 170.667h512c93.867 0 170.667-76.8 170.667-170.667v-512c0-93.867-76.8-170.667-170.667-170.667z" />
<glyph unicode="&#xe80a;" d="M696.889 189.156h-332.8c-39.822 0-71.111 31.289-71.111 71.111v352.711c0 39.822 31.289 71.111 71.111 71.111h51.2v-34.133h-51.2c-19.911 0-36.978-17.067-36.978-36.978v-352.711c0-19.911 17.067-36.978 36.978-36.978h332.8c19.911 0 36.978 17.067 36.978 36.978v352.711c0 19.911-17.067 36.978-36.978 36.978h-56.889v34.133h56.889c39.822 0 71.111-31.289 71.111-71.111v-352.711c0-39.822-34.133-71.111-71.111-71.111z" />
<glyph unicode="&#xe80b;" d="M577.422 689.778h-105.244c-14.222 0-25.6-11.378-25.6-25.6s11.378-25.6 25.6-25.6h105.244c14.222 0 25.6 11.378 25.6 25.6s-11.378 25.6-25.6 25.6v0z" />
<glyph unicode="&#xe80c;" d="M657.067 507.733h-256c-8.533 0-17.067 8.533-17.067 17.067s8.533 17.067 17.067 17.067h256c8.533 0 17.067-8.533 17.067-17.067s-8.533-17.067-17.067-17.067z" />
<glyph unicode="&#xe80d;" d="M657.067 416.711h-256c-8.533 0-17.067 8.533-17.067 17.067s8.533 17.067 17.067 17.067h256c8.533 0 17.067-8.533 17.067-17.067s-8.533-17.067-17.067-17.067z" />
<glyph unicode="&#xe80e;" d="M654.222 325.689h-256c-8.533 0-17.067 8.533-17.067 17.067s8.533 17.067 17.067 17.067h256c8.533 0 17.067-8.533 17.067-17.067s-8.533-17.067-17.067-17.067z" />
<glyph unicode="&#xe80f;" glyph-name="obligation" d="M864.711 103.822h-662.756c-42.667 0-76.8 34.133-76.8 76.8v452.267c0 42.667 34.133 76.8 76.8 76.8h199.111v-28.444h-199.111c-25.6 0-48.356-22.756-48.356-48.356v-449.422c0-25.6 22.756-48.356 48.356-48.356h662.756c25.6 0 48.356 22.756 48.356 48.356v449.422c0 25.6-22.756 48.356-48.356 48.356h-201.956v28.444h201.956c42.667 0 76.8-34.133 76.8-76.8v-449.422c2.844-42.667-34.133-79.644-76.8-79.644zM534.756 758.044c34.133 0 59.733-25.6 59.733-59.733v-193.422c0-34.133-25.6-59.733-59.733-59.733s-59.733 25.6-59.733 59.733v193.422c0 34.133 25.6 59.733 59.733 59.733zM534.756 786.489v0c-48.356 0-88.178-39.822-88.178-88.178v-193.422c0-48.356 39.822-88.178 88.178-88.178v0c48.356 0 88.178 39.822 88.178 88.178v193.422c0 51.2-39.822 88.178-88.178 88.178v0zM560.356 669.867c0-14.138-11.462-25.6-25.6-25.6s-25.6 11.462-25.6 25.6c0 14.138 11.462 25.6 25.6 25.6s25.6-11.462 25.6-25.6z" />
<glyph unicode="&#xe810;" d="M776.533 21.333h-512c-93.867 0-170.667 76.8-170.667 170.667v512c0 93.867 76.8 170.667 170.667 170.667h512c93.867 0 170.667-76.8 170.667-170.667v-512c0-93.867-76.8-170.667-170.667-170.667z" />
<glyph unicode="&#xe811;" d="M728.178 189.156h-426.667c-28.444 0-51.2 22.756-51.2 51.2v389.689h34.133v-389.689c0-8.533 8.533-17.067 17.067-17.067h426.667c8.533 0 17.067 8.533 17.067 17.067v310.044c0 8.533-8.533 17.067-17.067 17.067h-73.956v34.133h73.956c28.444 0 51.2-22.756 51.2-51.2v-310.044c-2.844-28.444-25.6-51.2-51.2-51.2z" />
<glyph unicode="&#xe812;" d="M566.044 686.933h91.022v-34.133h-91.022v34.133z" />
<glyph unicode="&#xe813;" d="M657.067 567.467h-347.022c-34.133 0-59.733 25.6-59.733 59.733s25.6 59.733 59.733 59.733h193.422v-34.133h-193.422c-14.222 0-25.6-11.378-25.6-25.6s11.378-25.6 25.6-25.6h347.022v-34.133z" />
<glyph unicode="&#xe814;" d="M736.711 590.222h-34.133v14.222c0 28.444-22.756 48.356-48.356 48.356v34.133c45.511 0 82.489-36.978 82.489-82.489v-14.222z" />
<glyph unicode="&#xe815;" d="M358.4 570.311l-17.067 28.444 182.044 102.4c17.067 11.378 39.822 2.844 51.2-14.222l54.044-93.867-28.444-17.067-54.044 93.867c0 0-2.844 2.844-2.844 0l-184.889-99.556z" />
<glyph unicode="&#xe816;" d="M688.356 411.022h22.756v-22.756h-22.756v22.756z" />
<glyph unicode="&#xe817;" d="M773.689 334.222h-82.489c-36.978 0-65.422 28.444-65.422 65.422s28.444 65.422 65.422 65.422h82.489v-34.133h-82.489c-17.067 0-31.289-14.222-31.289-31.289s14.222-31.289 31.289-31.289h82.489v-34.133z" />
<glyph unicode="&#xe818;" glyph-name="dsk" d="M548.978 755.2c22.756 0 42.667-19.911 42.667-42.667v-398.222c0-22.756-19.911-42.667-42.667-42.667h-398.222c-22.756 0-42.667 19.911-42.667 42.667v398.222c0 22.756 19.911 42.667 42.667 42.667h398.222zM548.978 783.644h-398.222c-36.978 0-71.111-34.133-71.111-73.956v-398.222c0-39.822 31.289-71.111 71.111-71.111h398.222c39.822 0 71.111 31.289 71.111 71.111v398.222c0 39.822-31.289 73.956-71.111 73.956v0zM676.978 442.311h162.133v-28.444h-162.133v28.444zM676.978 413.867c-8.533 0-14.222 5.689-14.222 14.222v241.778c0 8.533 5.689 14.222 14.222 14.222s14.222-5.689 14.222-14.222v-241.778c0-5.689-8.533-14.222-14.222-14.222zM856.178 658.489h-182.044c-8.533 0-14.222 5.689-14.222 14.222s5.689 14.222 14.222 14.222h182.044c8.533 0 14.222-5.689 14.222-14.222s-5.689-14.222-14.222-14.222zM944.356 479.289c-5.689 0-11.378 2.844-14.222 8.533l-85.333 176.356c-2.844 5.689 0 14.222 5.689 19.911 5.689 2.844 14.222 0 19.911-5.689l85.333-176.356c2.844-5.689 0-14.222-5.689-19.911-2.844-2.844-5.689-2.844-5.689-2.844zM944.356 231.822c-8.533 0-14.222 5.689-14.222 14.222v247.467c0 8.533 5.689 14.222 14.222 14.222s14.222-5.689 14.222-14.222v-247.467c0-8.533-8.533-14.222-14.222-14.222zM676.978 260.267h267.378v-28.444h-267.378v28.444zM292.978 100.978c-54.044 0-96.711 42.667-96.711 96.711h28.444c0-36.978 31.289-68.267 68.267-68.267s68.267 31.289 68.267 68.267h28.444c0-54.044-45.511-96.711-96.711-96.711zM807.822 100.978c-54.044 0-96.711 42.667-96.711 96.711h28.444c0-36.978 31.289-68.267 68.267-68.267s68.267 31.289 68.267 68.267h28.444c0-54.044-42.667-96.711-96.711-96.711zM187.733 442.311h324.267v-28.444h-324.267v28.444z" />
<glyph unicode="&#xe819;" d="M770.844 9.956h-512c-93.867 0-170.667 76.8-170.667 170.667v512c0 93.867 76.8 170.667 170.667 170.667h512c93.867 0 170.667-76.8 170.667-170.667v-512c0-93.867-76.8-170.667-170.667-170.667z" />
<glyph unicode="&#xe81a;" d="M537.6 226.133h-88.178c-88.178 0-156.444 0-156.444 51.2v8.533c0 85.333 71.111 153.6 156.444 153.6v0c-51.2 17.067-88.178 62.578-88.178 116.622 0 68.267 56.889 125.156 125.156 125.156s125.156-56.889 125.156-125.156c0-54.044-36.978-102.4-88.178-116.622h8.533c54.044 0 108.089-28.444 133.689-76.8l-14.222-8.533c-25.6 42.667-71.111 68.267-119.467 68.267h-88.178c-76.8 0-139.378-62.578-139.378-136.533v-8.533c0-31.289 54.044-34.133 139.378-34.133h88.178c0 0 0 0 0 0 19.911 0 36.978 0 54.044 0v-17.067c-11.378 0-31.289 0-48.356 0zM489.244 664.178c-59.733 0-108.089-48.356-108.089-108.089s48.356-108.089 108.089-108.089 108.089 48.356 108.089 108.089-48.356 108.089-108.089 108.089z" />
<glyph unicode="&#xe81b;" d="M662.756 226.133c-22.756 0-39.822 19.911-39.822 39.822 0 22.756 19.911 39.822 39.822 39.822 22.756 0 39.822-19.911 39.822-39.822 0-22.756-17.067-39.822-39.822-39.822zM662.756 291.556c-14.222 0-22.756-11.378-22.756-22.756s11.378-22.756 22.756-22.756 22.756 11.378 22.756 22.756-11.378 22.756-22.756 22.756z" />
<glyph unicode="&#xe81c;" d="M654.222 339.911h17.067v-45.511h-17.067v45.511z" />
<glyph unicode="&#xe81d;" d="M654.222 240.356h17.067v-45.511h-17.067v45.511z" />
<glyph unicode="&#xe81e;" d="M615.812 325.282l32.181-32.181-12.068-12.068-32.181 32.181 12.068 12.068z" />
<glyph unicode="&#xe81f;" d="M686.403 253.958l32.181-32.181-12.068-12.068-32.181 32.181 12.068 12.068z" />
<glyph unicode="&#xe820;" d="M688.356 277.333h45.511v-17.067h-45.511v17.067z" />
<glyph unicode="&#xe821;" d="M588.8 277.333h45.511v-17.067h-45.511v17.067z" />
<glyph unicode="&#xe822;" d="M706.884 324.917l12.068-12.068-32.181-32.181-12.068 12.068 32.181 32.181z" />
<glyph unicode="&#xe823;" d="M635.56 254.323l12.068-12.068-32.181-32.181-12.068 12.068 32.181 32.181z" />
<glyph unicode="&#xe824;" d="M603.022 172.089h-443.733c-48.356 0-85.333 36.978-85.333 85.333v446.578c0 48.356 36.978 85.333 85.333 85.333h620.089c48.356 0 85.333-36.978 85.333-85.333v-250.311h-28.444v250.311c0 31.289-25.6 56.889-56.889 56.889h-620.089c-31.289 0-56.889-25.6-56.889-56.889v-446.578c0-31.289 25.6-56.889 56.889-56.889h443.733v-28.444z" />
<glyph unicode="&#xe825;" d="M312.889 698.311h310.044v-28.444h-310.044v28.444z" />
<glyph unicode="&#xe826;" d="M312.889 556.089h310.044v-28.444h-310.044v28.444z" />
<glyph unicode="&#xe827;" d="M312.889 388.267h310.044v-28.444h-310.044v28.444z" />
<glyph unicode="&#xe828;" d="M950.044 265.956c0-87.973-71.316-159.289-159.289-159.289s-159.289 71.316-159.289 159.289c0 87.973 71.316 159.289 159.289 159.289s159.289-71.316 159.289-159.289z" />
<glyph unicode="&#xe829;" d="M762.311 169.244c-2.844 0-8.533 0-11.378 2.844l-68.267 71.111c-5.689 5.689-5.689 14.222 0 19.911s14.222 5.689 19.911 0l71.111-71.111c5.689-5.689 5.689-14.222 0-19.911-2.844-2.844-8.533-2.844-11.378-2.844z" />
<glyph unicode="&#xe82a;" d="M762.311 169.244c-2.844 0-8.533 0-11.378 2.844-5.689 5.689-5.689 14.222 0 19.911l119.467 119.467c5.689 5.689 14.222 5.689 19.911 0s5.689-14.222 0-19.911l-119.467-119.467c0-2.844-5.689-2.844-8.533-2.844z" />
<glyph unicode="&#xe82b;" d="M776.533 21.333h-512c-93.867 0-170.667 76.8-170.667 170.667v512c0 93.867 76.8 170.667 170.667 170.667h512c93.867 0 170.667-76.8 170.667-170.667v-512c0-93.867-76.8-170.667-170.667-170.667z" />
<glyph unicode="&#xe82c;" d="M597.333 314.311c5.689-5.689 8.533-8.533 8.533-14.222 0-8.533-14.222-25.6-39.822-48.356-34.133-31.289-65.422-48.356-91.022-42.667-17.067 2.844-25.6 17.067-22.756 39.822 0 11.378 8.533 42.667 25.6 93.867l28.444 102.4 8.533 25.6 5.689 19.911c2.844 8.533 2.844 17.067 5.689 22.756 2.844 11.378 0 19.911-8.533 19.911-19.911 2.844-42.667-17.067-71.111-56.889-2.844 5.689-5.689 8.533-5.689 14.222 2.844 14.222 19.911 34.133 51.2 56.889s56.889 31.289 73.956 31.289c19.911-2.844 25.6-17.067 22.756-42.667 0-5.689-2.844-14.222-8.533-31.289l-5.689-25.6c0-2.844-2.844-11.378-8.533-31.289l-31.289-105.244-5.689-22.756c-5.689-22.756-11.378-39.822-11.378-48.356-2.844-11.378 0-17.067 8.533-17.067 17.067-2.844 42.667 17.067 71.111 59.733z" />
<glyph unicode="&#xe82d;" d="M605.867 638.578c0-26.706-21.65-48.356-48.356-48.356s-48.356 21.65-48.356 48.356c0 26.706 21.65 48.356 48.356 48.356s48.356-21.65 48.356-48.356z" />
<glyph unicode="&#xe82e;" d="M768 21.333h-512c-93.867 0-170.667 76.8-170.667 170.667v512c0 93.867 76.8 170.667 170.667 170.667h512c93.867 0 170.667-76.8 170.667-170.667v-512c0-93.867-76.8-170.667-170.667-170.667z" />
<glyph unicode="&#xe82f;" d="M802.133 197.689l-227.556 88.178h-301.511c-31.289 0-59.733 25.6-59.733 59.733v295.822c0 31.289 25.6 59.733 59.733 59.733h477.867c31.289 0 59.733-25.6 59.733-59.733v-295.822c0-28.444-19.911-51.2-45.511-56.889l36.978-91.022zM273.067 681.244c-22.756 0-42.667-19.911-42.667-42.667v-295.822c0-22.756 19.911-42.667 42.667-42.667h307.2l190.578-73.956-31.289 73.956h14.222c22.756 0 42.667 19.911 42.667 42.667v298.667c0 22.756-19.911 42.667-42.667 42.667h-480.711z" />
<glyph unicode="&#xe830;" d="M375.467 604.444h204.8v-17.067h-204.8v17.067z" />
<glyph unicode="&#xe831;" d="M375.467 507.733h273.067v-17.067h-273.067v17.067z" />
<glyph unicode="&#xe832;" d="M375.467 411.022h273.067v-17.067h-273.067v17.067z" />
<glyph unicode="&#xe900;" glyph-name="kkpos" d="M702.578 857.6h-378.311c-56.889 0-102.4-39.822-102.4-91.022v-637.156c0-51.2 45.511-91.022 102.4-91.022h378.311c56.889 0 102.4 39.822 102.4 91.022v637.156c-2.844 51.2-48.356 91.022-102.4 91.022v0zM287.289 789.333h446.578v-264.533h-446.578v264.533zM372.622 132.267h-85.333v102.4h85.333v-102.4zM372.622 345.6h-85.333v102.4h85.333v-102.4zM494.933 132.267h-85.333v102.4h85.333v-102.4zM494.933 345.6h-85.333v102.4h85.333v-102.4zM614.4 132.267h-85.333v102.4h85.333v-102.4zM614.4 345.6h-85.333v102.4h85.333v-102.4zM733.867 132.267h-85.333v102.4h85.333v-102.4zM733.867 345.6h-85.333v102.4h85.333v-102.4z" />
<glyph unicode="&#xe901;" glyph-name="remark" d="M685.511 29.867h-349.867c-102.4 0-187.733 85.333-187.733 187.733v401.067c0 102.4 85.333 187.733 187.733 187.733h349.867c102.4 0 187.733-85.333 187.733-187.733v-401.067c0-102.4-82.489-187.733-187.733-187.733zM338.489 772.267c-85.333 0-153.6-68.267-153.6-153.6v-401.067c0-85.333 68.267-153.6 153.6-153.6h349.867c85.333 0 153.6 68.267 153.6 153.6v401.067c0 85.333-68.267 153.6-153.6 153.6h-349.867zM298.667 558.933h290.133v-34.133h-290.133v34.133zM295.822 405.333h435.2v-34.133h-435.2v34.133zM295.822 248.889h435.2v-34.133h-435.2v34.133zM352.711 866.133h34.133v-125.156h-34.133v125.156zM637.156 866.133h34.133v-125.156h-34.133v125.156z" />
<glyph unicode="&#xe902;" d="M776.533 92.444h-620.089c-48.356 0-85.333 36.978-85.333 85.333v358.4c0 48.356 36.978 85.333 85.333 85.333h620.089c48.356 0 85.333-36.978 85.333-85.333v-358.4c0-48.356-39.822-85.333-85.333-85.333zM156.444 593.067c-31.289 0-56.889-25.6-56.889-56.889v-358.4c0-31.289 25.6-56.889 56.889-56.889h620.089c31.289 0 56.889 25.6 56.889 56.889v358.4c0 31.289-25.6 56.889-56.889 56.889h-620.089z" />
<glyph unicode="&#xe903;" d="M85.333 544.711h762.311v-79.644h-762.311v79.644z" />
<glyph unicode="&#xe904;" d="M938.667 539.022c0-138.243-112.068-250.311-250.311-250.311s-250.311 112.068-250.311 250.311c0 138.243 112.068 250.311 250.311 250.311s250.311-112.068 250.311-250.311z" />
<glyph unicode="&#xe905;" d="M688.356 274.489c-145.067 0-264.533 119.467-264.533 264.533s119.467 264.533 264.533 264.533 264.533-119.467 264.533-264.533c0-145.067-119.467-264.533-264.533-264.533zM688.356 775.111c-130.844 0-236.089-105.244-236.089-236.089s105.244-236.089 236.089-236.089c130.844 0 236.089 105.244 236.089 236.089s-105.244 236.089-236.089 236.089z" />
<glyph unicode="&#xe906;" d="M671.289 408.178v56.889h-73.956v25.6h73.956v25.6h-73.956v25.6h59.733l-73.956 128h36.978l51.2-93.867c5.689-11.378 11.378-19.911 14.222-28.444 2.844 5.689 8.533 17.067 14.222 28.444l48.356 91.022h36.978l-71.111-128h59.733v-25.6h-73.956v-25.6h73.956v-25.6h-73.956v-56.889h-28.444z" />
<glyph unicode="&#xe907;" glyph-name="blurb" d="M722.489 21.333h-418.133c-102.4 0-187.733 85.333-187.733 187.733v477.867c0 102.4 85.333 187.733 187.733 187.733h418.133c102.4 0 187.733-85.333 187.733-187.733v-477.867c0-102.4-85.333-187.733-187.733-187.733zM301.511 840.533c-85.333 0-153.6-68.267-153.6-153.6v-477.867c0-85.333 68.267-153.6 153.6-153.6h418.133c85.333 0 153.6 68.267 153.6 153.6v477.867c0 85.333-68.267 153.6-153.6 153.6h-418.133zM631.467 467.911c-73.956 0-136.533 62.578-136.533 136.533s62.578 136.533 136.533 136.533c73.956 0 136.533-62.578 136.533-136.533s-59.733-136.533-136.533-136.533zM631.467 706.844c-56.889 0-102.4-45.511-102.4-102.4s45.511-102.4 102.4-102.4c56.889 0 102.4 45.511 102.4 102.4s-45.511 102.4-102.4 102.4zM273.067 738.133h170.667v-34.133h-170.667v34.133zM273.067 567.467h170.667v-34.133h-170.667v34.133zM273.067 396.8h480.711v-34.133h-480.711v34.133zM273.067 226.133h480.711v-34.133h-480.711v34.133z" />
<glyph unicode="&#xe908;" glyph-name="times" d="M520.533 21.333c-236.089 0-426.667 190.578-426.667 426.667s190.578 426.667 426.667 426.667c236.089 0 426.667-190.578 426.667-426.667s-193.422-426.667-426.667-426.667zM520.533 840.533c-216.178 0-392.533-176.356-392.533-392.533s176.356-392.533 392.533-392.533c216.178 0 392.533 176.356 392.533 392.533s-176.356 392.533-392.533 392.533zM506.311 465.067h244.622v-34.133h-244.622v34.133zM503.467 775.111h34.133v-327.111h-34.133v327.111z" />
<glyph unicode="&#xe909;" glyph-name="wechat" d="M566.044 448c-8.533 0-17.067-8.533-17.067-17.067s8.533-17.067 17.067-17.067c11.378 0 19.911 8.533 19.911 17.067s-8.533 17.067-19.911 17.067zM512 527.644c11.378 0 19.911 8.533 19.911 19.911s-8.533 19.911-19.911 19.911c-11.378 0-25.6-8.533-25.6-19.911s11.378-19.911 25.6-19.911zM395.378 570.311c-11.378 0-25.6-8.533-25.6-19.911s11.378-19.911 25.6-19.911c11.378 0 19.911 8.533 19.911 19.911s-8.533 19.911-19.911 19.911zM517.689 857.6c-224.711 0-409.6-182.044-409.6-409.6s184.889-409.6 409.6-409.6c224.711 0 409.6 182.044 409.6 409.6s-182.044 409.6-409.6 409.6zM449.422 356.978c-19.911 0-36.978 5.689-59.733 8.533l-59.733-28.444 17.067 51.2c-42.667 28.444-68.267 68.267-68.267 113.778 0 79.644 76.8 142.222 167.822 142.222 82.489 0 153.6-51.2 167.822-116.622-5.689 0-11.378 0-17.067 0-79.644 0-142.222-59.733-142.222-133.689 0-11.378 2.844-22.756 5.689-34.133-2.844-2.844-5.689-2.844-11.378-2.844zM696.889 297.244l11.378-42.667-45.511 25.6c-17.067-2.844-34.133-8.533-51.2-8.533-79.644 0-142.222 54.044-142.222 122.311s62.578 122.311 142.222 122.311c73.956 0 142.222-54.044 142.222-122.311 0-36.978-22.756-71.111-56.889-96.711zM657.067 448c-8.533 0-17.067-8.533-17.067-17.067s8.533-17.067 17.067-17.067c11.378 0 19.911 8.533 19.911 17.067 2.844 8.533-5.689 17.067-19.911 17.067z" />
<glyph unicode="&#xe90a;" glyph-name="cash" d="M836.267 857.6h-648.533c-45.511 0-85.333-39.822-85.333-85.333v-648.533c0-45.511 39.822-85.333 85.333-85.333h648.533c45.511 0 85.333 39.822 85.333 85.333v648.533c0 45.511-39.822 85.333-85.333 85.333zM676.978 456.533v-48.356h-133.689v-45.511h133.689v-45.511h-133.689v-105.244h-59.733v105.244h-133.689v45.511h133.689v45.511h-133.689v48.356h110.933l-130.844 230.4h65.422l93.867-167.822c11.378-19.911 19.911-36.978 25.6-51.2 5.689 11.378 14.222 28.444 25.6 54.044l88.178 164.978h68.267l-130.844-230.4h110.933z" />
<glyph unicode="&#xe90b;" glyph-name="alipay" d="M921.6 297.244v403.911c0 88.178-71.111 156.444-156.444 156.444h-503.467c-88.178 0-156.444-71.111-156.444-156.444v-503.467c0-88.178 71.111-156.444 156.444-156.444h503.467c76.8 0 142.222 56.889 156.444 130.844-42.667 17.067-221.867 96.711-315.733 142.222-71.111-88.178-147.911-139.378-258.844-139.378-113.778 0-187.733 71.111-179.2 156.444 5.689 56.889 45.511 147.911 210.489 130.844 88.178-8.533 128-25.6 199.111-48.356 17.067 34.133 34.133 71.111 45.511 110.933h-318.578v31.289h156.444v56.889h-193.422v34.133h193.422v82.489c0 0 2.844 14.222 17.067 14.222h79.644v-93.867h204.8v-34.133h-204.8v-56.889h167.822c-14.222-62.578-39.822-119.467-68.267-170.667 42.667-22.756 264.533-91.022 264.533-91.022v0 0zM329.956 223.289c-119.467 0-139.378 76.8-133.689 108.089s39.822 71.111 108.089 71.111c76.8 0 145.067-19.911 227.556-59.733-56.889-73.956-128-119.467-201.956-119.467v0z" />
<glyph unicode="&#xe90c;" glyph-name="invite" d="M870.4 145.067h-716.8c-46.933 0-85.333 38.4-85.333 85.333v439.467c0 46.933 38.4 85.333 85.333 85.333h721.067c46.933 0 85.333-38.4 85.333-85.333v-439.467c-4.267-46.933-42.667-85.333-89.6-85.333zM153.6 716.8c-25.6 0-51.2-21.333-51.2-51.2v-439.467c0-25.6 21.333-51.2 51.2-51.2h721.067c25.6 0 51.2 21.333 51.2 51.2v443.733c0 25.6-21.333 51.2-51.2 51.2h-721.067zM366.933 499.2c29.867 0 51.2-21.333 51.2-51.2s-21.333-51.2-51.2-51.2c-29.867 0-51.2 21.333-51.2 51.2s25.6 51.2 51.2 51.2zM366.933 533.333c-46.933 0-85.333-38.4-85.333-85.333s38.4-85.333 85.333-85.333 85.333 38.4 85.333 85.333-38.4 85.333-85.333 85.333v0zM657.067 499.2c29.867 0 51.2-21.333 51.2-51.2s-21.333-51.2-51.2-51.2c-29.867 0-51.2 21.333-51.2 51.2s21.333 51.2 51.2 51.2zM657.067 533.333c-46.933 0-85.333-38.4-85.333-85.333s38.4-85.333 85.333-85.333 85.333 38.4 85.333 85.333-38.4 85.333-85.333 85.333v0z" />
<glyph unicode="&#xe90d;" glyph-name="rush" horiz-adv-x="1067" d="M663.467-19.2h-260.267c-23.467 0-42.667-19.2-42.667-42.667s19.2-42.667 42.667-42.667h262.4c23.467 0 42.667 19.2 42.667 42.667s-19.2 42.667-44.8 42.667v0zM10.667 155.733l42.667-130.133h174.933v369.067c0 0-87.467-238.933-217.6-238.933v0zM533.333 917.333c-42.667 0-262.4-262.4-262.4-262.4v-588.8c0-23.467 19.2-42.667 42.667-42.667h435.2c23.467 0 42.667 19.2 42.667 42.667v588.8c4.267-2.133-215.467 262.4-258.133 262.4v0zM740.267 68.267h-413.867v563.2c0 0 198.4 221.867 209.067 221.867 12.8 0 206.933-221.867 206.933-221.867l-2.133-563.2zM838.4 394.667v-371.2h174.933l42.667 130.133c-130.133 2.133-217.6 241.067-217.6 241.067v0z" />
</font>
</defs>
</svg>
